<svg viewBox="0 0 330 200" xmlns="http://www.w3.org/2000/svg"><g><g><g><g><g><line x1="40.84375" y1="174" x2="35.84375" y2="174" style="visibility: inherit;" fill="rgb(0, 0, 0)" stroke="rgb(204, 204, 204)" stroke-width="1px"></line><line x1="40.84375" y1="158.1818181818182" x2="35.84375" y2="158.1818181818182" style="visibility: inherit;" fill="rgb(0, 0, 0)" stroke="rgb(204, 204, 204)" stroke-width="1px"></line><line x1="40.84375" y1="142.36363636363637" x2="35.84375" y2="142.36363636363637" style="visibility: inherit;" fill="rgb(0, 0, 0)" stroke="rgb(204, 204, 204)" stroke-width="1px"></line><line x1="40.84375" y1="126.54545454545459" x2="35.84375" y2="126.54545454545459" style="visibility: inherit;" fill="rgb(0, 0, 0)" stroke="rgb(204, 204, 204)" stroke-width="1px"></line><line x1="40.84375" y1="110.72727272727275" x2="35.84375" y2="110.72727272727275" style="visibility: inherit;" fill="rgb(0, 0, 0)" stroke="rgb(204, 204, 204)" stroke-width="1px"></line><line x1="40.84375" y1="94.9090909090909" x2="35.84375" y2="94.9090909090909" style="visibility: inherit;" fill="rgb(0, 0, 0)" stroke="rgb(204, 204, 204)" stroke-width="1px"></line><line x1="40.84375" y1="79.09090909090912" x2="35.84375" y2="79.09090909090912" style="visibility: inherit;" fill="rgb(0, 0, 0)" stroke="rgb(204, 204, 204)" stroke-width="1px"></line><line x1="40.84375" y1="63.272727272727295" x2="35.84375" y2="63.272727272727295" style="visibility: inherit;" fill="rgb(0, 0, 0)" stroke="rgb(204, 204, 204)" stroke-width="1px"></line><line x1="40.84375" y1="47.45454545454549" x2="35.84375" y2="47.45454545454549" style="visibility: inherit;" fill="rgb(0, 0, 0)" stroke="rgb(204, 204, 204)" stroke-width="1px"></line><line x1="40.84375" y1="31.636363636363665" x2="35.84375" y2="31.636363636363665" style="visibility: inherit;" fill="rgb(0, 0, 0)" stroke="rgb(204, 204, 204)" stroke-width="1px"></line><line x1="40.84375" y1="15.818181818181824" x2="35.84375" y2="15.818181818181824" style="visibility: inherit;" fill="rgb(0, 0, 0)" stroke="rgb(204, 204, 204)" stroke-width="1px"></line><line x1="40.84375" y1="0" x2="35.84375" y2="0" style="visibility: inherit;" fill="rgb(0, 0, 0)" stroke="rgb(204, 204, 204)" stroke-width="1px"></line></g><g transform="translate(30.84375, 0)"><text x="0" y="174" dx="0em" dy="0.3em" style="text-anchor: end; visibility: hidden; font-family: Roboto, sans-serif; font-size: 12px; font-weight: 200;" fill="rgb(33, 33, 33)" stroke="none" stroke-width="1px">1.1</text><text x="0" y="158.1818181818182" dx="0em" dy="0.3em" style="text-anchor: end; visibility: inherit; font-family: Roboto, sans-serif; font-size: 12px; font-weight: 200;" fill="rgb(33, 33, 33)" stroke="none" stroke-width="1px">1.2</text><text x="0" y="142.36363636363637" dx="0em" dy="0.3em" style="text-anchor: end; visibility: hidden; font-family: Roboto, sans-serif; font-size: 12px; font-weight: 200;" fill="rgb(33, 33, 33)" stroke="none" stroke-width="1px">1.3</text><text x="0" y="126.54545454545459" dx="0em" dy="0.3em" style="text-anchor: end; visibility: inherit; font-family: Roboto, sans-serif; font-size: 12px; font-weight: 200;" fill="rgb(33, 33, 33)" stroke="none" stroke-width="1px">1.4</text><text x="0" y="110.72727272727275" dx="0em" dy="0.3em" style="text-anchor: end; visibility: hidden; font-family: Roboto, sans-serif; font-size: 12px; font-weight: 200;" fill="rgb(33, 33, 33)" stroke="none" stroke-width="1px">1.5</text><text x="0" y="94.9090909090909" dx="0em" dy="0.3em" style="text-anchor: end; visibility: inherit; font-family: Roboto, sans-serif; font-size: 12px; font-weight: 200;" fill="rgb(33, 33, 33)" stroke="none" stroke-width="1px">1.6</text><text x="0" y="79.09090909090912" dx="0em" dy="0.3em" style="text-anchor: end; visibility: hidden; font-family: Roboto, sans-serif; font-size: 12px; font-weight: 200;" fill="rgb(33, 33, 33)" stroke="none" stroke-width="1px">1.7</text><text x="0" y="63.272727272727295" dx="0em" dy="0.3em" style="text-anchor: end; visibility: inherit; font-family: Roboto, sans-serif; font-size: 12px; font-weight: 200;" fill="rgb(33, 33, 33)" stroke="none" stroke-width="1px">1.8</text><text x="0" y="47.45454545454549" dx="0em" dy="0.3em" style="text-anchor: end; visibility: hidden; font-family: Roboto, sans-serif; font-size: 12px; font-weight: 200;" fill="rgb(33, 33, 33)" stroke="none" stroke-width="1px">1.9</text><text x="0" y="31.636363636363665" dx="0em" dy="0.3em" style="text-anchor: end; visibility: inherit; font-family: Roboto, sans-serif; font-size: 12px; font-weight: 200;" fill="rgb(33, 33, 33)" stroke="none" stroke-width="1px">2</text><text x="0" y="15.818181818181824" dx="0em" dy="0.3em" style="text-anchor: end; visibility: hidden; font-family: Roboto, sans-serif; font-size: 12px; font-weight: 200;" fill="rgb(33, 33, 33)" stroke="none" stroke-width="1px">2.1</text><text x="0" y="0" dx="0em" dy="0.3em" style="text-anchor: end; visibility: hidden; font-family: Roboto, sans-serif; font-size: 12px; font-weight: 200;" fill="rgb(33, 33, 33)" stroke="none" stroke-width="1px">2.2</text></g><line x1="40.84375" y1="0" x2="40.84375" y2="174" fill="rgb(0, 0, 0)" stroke="rgb(204, 204, 204)" stroke-width="1px"></line></g></g><g transform="translate(40, 0)" clip-path="url(#clip_0)"><clipPath id="clip_0"><rect width="289" height="174"></rect></clipPath><g><g><g><line x1="0" y1="0" x2="0" y2="174" fill="rgb(0, 0, 0)" stroke="rgb(66, 66, 66)" stroke-width="1px" opacity="0.25"></line><line x1="22.242788461538463" y1="0" x2="22.242788461538463" y2="174" fill="rgb(0, 0, 0)" stroke="rgb(66, 66, 66)" stroke-width="1px" opacity="0.25"></line><line x1="44.48557692307693" y1="0" x2="44.48557692307693" y2="174" fill="rgb(0, 0, 0)" stroke="rgb(66, 66, 66)" stroke-width="1px" opacity="0.25"></line><line x1="66.72836538461539" y1="0" x2="66.72836538461539" y2="174" fill="rgb(0, 0, 0)" stroke="rgb(66, 66, 66)" stroke-width="1px" opacity="0.25"></line><line x1="88.97115384615385" y1="0" x2="88.97115384615385" y2="174" fill="rgb(0, 0, 0)" stroke="rgb(66, 66, 66)" stroke-width="1px" opacity="0.25"></line><line x1="111.21394230769232" y1="0" x2="111.21394230769232" y2="174" fill="rgb(0, 0, 0)" stroke="rgb(66, 66, 66)" stroke-width="1px" opacity="0.25"></line><line x1="133.45673076923077" y1="0" x2="133.45673076923077" y2="174" fill="rgb(0, 0, 0)" stroke="rgb(66, 66, 66)" stroke-width="1px" opacity="0.25"></line><line x1="155.69951923076923" y1="0" x2="155.69951923076923" y2="174" fill="rgb(0, 0, 0)" stroke="rgb(66, 66, 66)" stroke-width="1px" opacity="0.25"></line><line x1="177.9423076923077" y1="0" x2="177.9423076923077" y2="174" fill="rgb(0, 0, 0)" stroke="rgb(66, 66, 66)" stroke-width="1px" opacity="0.25"></line><line x1="200.18509615384616" y1="0" x2="200.18509615384616" y2="174" fill="rgb(0, 0, 0)" stroke="rgb(66, 66, 66)" stroke-width="1px" opacity="0.25"></line><line x1="222.42788461538464" y1="0" x2="222.42788461538464" y2="174" fill="rgb(0, 0, 0)" stroke="rgb(66, 66, 66)" stroke-width="1px" opacity="0.25"></line><line x1="244.67067307692307" y1="0" x2="244.67067307692307" y2="174" fill="rgb(0, 0, 0)" stroke="rgb(66, 66, 66)" stroke-width="1px" opacity="0.25"></line><line x1="266.91346153846155" y1="0" x2="266.91346153846155" y2="174" fill="rgb(0, 0, 0)" stroke="rgb(66, 66, 66)" stroke-width="1px" opacity="0.25"></line><line x1="289.15625" y1="0" x2="289.15625" y2="174" fill="rgb(0, 0, 0)" stroke="rgb(66, 66, 66)" stroke-width="1px" opacity="0.25"></line></g><g><line x1="0" y1="174" x2="289.15625" y2="174" fill="rgb(0, 0, 0)" stroke="rgb(66, 66, 66)" stroke-width="1px" opacity="0.25"></line><line x1="0" y1="158.1818181818182" x2="289.15625" y2="158.1818181818182" fill="rgb(0, 0, 0)" stroke="rgb(66, 66, 66)" stroke-width="1px" opacity="0.25"></line><line x1="0" y1="142.36363636363637" x2="289.15625" y2="142.36363636363637" fill="rgb(0, 0, 0)" stroke="rgb(66, 66, 66)" stroke-width="1px" opacity="0.25"></line><line x1="0" y1="126.54545454545459" x2="289.15625" y2="126.54545454545459" fill="rgb(0, 0, 0)" stroke="rgb(66, 66, 66)" stroke-width="1px" opacity="0.25"></line><line x1="0" y1="110.72727272727275" x2="289.15625" y2="110.72727272727275" fill="rgb(0, 0, 0)" stroke="rgb(66, 66, 66)" stroke-width="1px" opacity="0.25"></line><line x1="0" y1="94.9090909090909" x2="289.15625" y2="94.9090909090909" fill="rgb(0, 0, 0)" stroke="rgb(66, 66, 66)" stroke-width="1px" opacity="0.25"></line><line x1="0" y1="79.09090909090912" x2="289.15625" y2="79.09090909090912" fill="rgb(0, 0, 0)" stroke="rgb(66, 66, 66)" stroke-width="1px" opacity="0.25"></line><line x1="0" y1="63.272727272727295" x2="289.15625" y2="63.272727272727295" fill="rgb(0, 0, 0)" stroke="rgb(66, 66, 66)" stroke-width="1px" opacity="0.25"></line><line x1="0" y1="47.45454545454549" x2="289.15625" y2="47.45454545454549" fill="rgb(0, 0, 0)" stroke="rgb(66, 66, 66)" stroke-width="1px" opacity="0.25"></line><line x1="0" y1="31.636363636363665" x2="289.15625" y2="31.636363636363665" fill="rgb(0, 0, 0)" stroke="rgb(66, 66, 66)" stroke-width="1px" opacity="0.25"></line><line x1="0" y1="15.818181818181824" x2="289.15625" y2="15.818181818181824" fill="rgb(0, 0, 0)" stroke="rgb(66, 66, 66)" stroke-width="1px" opacity="0.25"></line><line x1="0" y1="0" x2="289.15625" y2="0" fill="rgb(0, 0, 0)" stroke="rgb(66, 66, 66)" stroke-width="1px" opacity="0.25"></line></g></g></g><g><g><line x1="0" y1="348" x2="289.15625" y2="348" fill="rgb(0, 0, 0)" stroke="rgb(153, 153, 153)" stroke-width="1.5px"></line></g></g><g><g><line x1="22.242788461538463" y1="0" x2="22.242788461538463" y2="174" fill="rgb(0, 0, 0)" stroke="rgb(153, 153, 153)" stroke-width="1.5px"></line></g></g><g><g><g><g><g><path stroke="rgb(255, 112, 67)" stroke-width="2px" d="M28.915625000000002,-7.975723962740652L30.027764423076924,3.622596422621757L31.13990384615385,15.83703484338172L32.25204326923077,33.452066570345295L32.25204326923077,32.97127628800294L33.36418269230769,43.92265495744766L34.47632211538462,62.187090170419104L35.58846153846154,67.79853139638696L36.70060096153846,71.56577949559767L36.70060096153846,72.46046737836723L37.81274038461539,81.06604036944009L38.92487980769231,85.4665550126924L40.03701923076923,86.82110370490581L41.14915865384615,82.73254809371605L41.14915865384615,86.29759024903397L42.261298076923076,94.84668432746915L43.3734375,97.79730296274245L44.48557692307693,101.60010865475499L45.597716346153845,85.75890139736904L45.597716346153845,96.85205857061837L46.70985576923077,89.89934597874075L47.82199519230769,89.19487279802355L48.934134615384615,98.28958717213261L50.04627403846154,102.18701987687797L50.04627403846154,98.94479523246308L51.158413461538466,100.51262035574649L52.270552884615384,104.8864464938877L53.38269230769231,106.58136013858397L54.49483173076923,109.19859243307823L54.49483173076923,114.45402931701909L55.60697115384616,114.33423734823263L56.71911057692308,106.344549574912L57.831250000000004,107.16185398332016L58.94338942307692,108.7388542186748L58.94338942307692,117.42583171232495L60.05552884615385,106.7335874306729L61.16766826923077,103.20841194369741L62.2798076923077,111.55926499883952L63.39194711538462,113.91079325027891L63.39194711538462,107.89542554397096L64.50408653846154,118.92217412162445L65.61622596153846,116.43416651261153L66.72836538461539,118.79469656041019L67.84050480769231,111.5373742008933L67.84050480769231,115.98625592367091L68.95264423076924,118.2081502270252L70.06478365384615,114.13742857990086L71.17692307692307,110.63378508825832L72.2890625,114.45775502765906L72.2890625,114.70672363665476L73.40120192307693,119.9247663122411L74.51334134615384,122.96483396012516L75.62548076923078,114.84640634374433L76.73762019230769,113.15030262391636L76.73762019230769,114.94230396584578L77.84975961538461,116.81106953118918L78.96189903846152,118.17979519444285L80.07403846153846,118.83826183418374L81.18617788461539,115.0282098587976L81.18617788461539,124.13024081924584L82.2983173076923,123.97059939300625L83.41045673076923,125.57533815628157L84.52259615384615,111.475793680096L85.63473557692308,112.83121395202379L85.63473557692308,115.23391618876715L86.746875,124.06629663440484L87.85901442307691,118.76430021925515L88.97115384615385,120.26765840622797L90.08329326923077,114.42632385299204L90.08329326923077,115.4190297982707L91.19543269230769,113.76821406442079L92.3075721153846,123.40489052900334L93.41971153846154,118.0399453960402L94.53185096153847,120.42036658687933L94.53185096153847,112.59646601868852L95.64399038461538,115.7120734739133L96.7561298076923,114.83474035817261L97.86826923076923,120.76283491664303L98.98040865384615,128.724220400097L98.98040865384615,132.87750002482946L100.09254807692308,130.64898852576417L101.20468749999999,126.32318588331768L102.31682692307693,124.13285082284408L103.42896634615384,116.96638441702792L103.42896634615384,114.30533433877348L104.54110576923077,118.70990254451657L105.65324519230768,119.94886295303004L106.76538461538462,121.46755055356572L107.87752403846154,124.16391736355664L107.87752403846154,126.45701296795676L108.98966346153846,119.35552809935525L110.10180288461538,123.05447456586809L111.21394230769232,122.49304844330743L112.32608173076923,124.37993689512749L112.32608173076923,122.44703923868086L113.43822115384616,127.23610301539253L114.55036057692307,124.67331065869864L115.66250000000001,120.90939695879705L116.77463942307692,124.80322003046177L116.77463942307692,126.6508770653212L117.88677884615385,126.94561349314422L118.99891826923077,128.81112408991865L120.1110576923077,125.27599563014617L121.22319711538462,121.95363451859735L121.22319711538462,126.43813153343093L122.33533653846153,124.21894394357912L123.44747596153846,123.43097441681799L124.5596153846154,127.03180828623246L125.67175480769231,124.31674844722954L125.67175480769231,125.69498535272942L126.78389423076923,119.45131190501921L127.89603365384615,128.06519505907045L129.00817307692307,134.5701567287456L130.1203125,125.7875562582649L130.1203125,129.34733351938604L131.23245192307692,122.8068530861837L132.34459134615383,123.24145006480772L133.45673076923077,127.12125791100878L134.56887019230768,133.20048741996112L134.56887019230768,129.08124483452892L135.68100961538462,132.71639900215607L136.79314903846154,130.33750832925503L137.90528846153848,126.35906795982864L139.0174278846154,136.97602392786018L139.0174278846154,127.11518138128403L140.1295673076923,129.4706212027762L141.24170673076924,131.89582760561305L142.35384615384615,138.76148265902918L143.4659855769231,139.4070743137807L143.4659855769231,132.66746560283397L144.578125,126.47920760264454L145.6902644230769,138.32408169193982L146.80240384615385,141.12181381934215L147.91454326923076,140.74157889531608L147.91454326923076,138.17322975132993L149.02668269230767,140.25274560736491L150.13882211538464,132.973815044926L151.25096153846155,134.5143909245882L152.36310096153846,143.52564040337117L152.36310096153846,137.76123355770622L153.47524038461538,135.44576012798643L154.58737980769232,142.9056403010943L155.69951923076923,144.37733528568643L156.81165865384614,142.76357310340285L156.81165865384614,140.81838239152447L157.92379807692305,135.45915491245438L159.03593750000002,141.59816737529206L160.14807692307693,144.28279401912386L161.26021634615384,145.01115125417104L161.26021634615384,137.0494164129726L162.37235576923078,136.64570640862857L163.4844951923077,138.1631192196129L164.5966346153846,145.19620776750617L165.70877403846154,151.9932097114379L165.70877403846154,154.12863297703103L166.82091346153845,151.54561404289547L167.9330528846154,147.90771534340917L169.0451923076923,145.8297170698974L170.15733173076924,144.44170817390682L170.15733173076924,145.62284576381248L171.26947115384615,149.42025745140674L172.38161057692307,145.63613791598758L173.49375,145.46727460100377L174.60588942307692,146.49618630134023L174.60588942307692,142.9993720834688L175.71802884615383,142.36613969653146L176.8301682692308,144.12948155439665L177.9423076923077,151.40466535092068L179.05444711538462,152.01492562622823L179.05444711538462,151.46586300738065L180.16658653846153,155.96198808212398L181.27872596153847,157.80164818675303L182.39086538461538,148.92612487361265L183.5030048076923,146.57861373190516L183.5030048076923,151.01390874566715L184.6151442307692,149.9251304192001L185.72728365384617,146.6923850315133L186.83942307692308,148.50533316726174L187.9515625,151.59875825482695L187.9515625,145.86738711082623L189.06370192307693,144.70946295888777L190.17584134615385,155.3367441130883L191.28798076923076,156.93044306510774L192.4001201923077,154.45705891886303L192.4001201923077,155.48510135345086L193.5122596153846,155.51102948619598L194.62439903846155,154.1808726498078L195.73653846153846,152.57260334541135L196.8486778846154,153.78677655076538L196.8486778846154,157.42263998813664L197.9608173076923,157.6368217444738L199.07295673076922,157.47996649389214L200.18509615384616,153.84776793380533L201.29723557692307,151.93260579895693L201.29723557692307,148.3725363244509L202.40937499999998,154.86353715371052L203.52151442307695,155.42718207544542L204.63365384615386,153.85483582971796L205.74579326923077,157.89615132895423L205.74579326923077,152.6916513868235L206.85793269230768,151.15760846784917L207.97007211538462,155.59456215845614L209.08221153846154,164.70155207126064L210.19435096153845,159.10497304369844L210.19435096153845,155.020081815678L211.30649038461536,155.30116667741325L212.41862980769233,163.55456749674818L213.53076923076924,165.83134382179415L214.64290865384615,156.08585057928585L214.64290865384615,162.6839668747471L215.7550480769231,162.63447376231304L216.8671875,161.3294957240034L217.9793269230769,160.79134588887538L219.09146634615385,153.0921755901072L219.09146634615385,158.22401301115337L220.20360576923076,165.55350449743955L221.31574519230767,159.04190916507955L222.42788461538464,162.5265272795245L223.54002403846155,153.30771233589348L223.54002403846155,155.52368070881977L224.65216346153846,156.20881376832241L225.76430288461538,160.23975754147335L226.87644230769232,159.77020619709765L227.98858173076923,160.79647558257304L227.98858173076923,159.64126929231685L229.10072115384614,159.64595830469196L230.21286057692305,165.83794703566764L231.32500000000002,161.36918378301863L232.43713942307693,162.76068067144809L232.43713942307693,164.97927683237154L233.54927884615384,162.606003491964L234.66141826923078,166.18805944577383L235.7735576923077,162.58897328256606L236.8856971153846,162.0425419296308L236.8856971153846,158.2667926885355L237.99783653846154,159.3570870362189L239.10997596153845,160.68639242645108L240.2221153846154,169.39793512702576L241.3342548076923,165.90837641304574L241.3342548076923,160.93222998438463L242.44639423076924,163.06358954977654L243.55853365384615,165.6214709745307L244.67067307692307,167.6002020148918L245.7828125,167.17279419832457L245.7828125,170.71891461088012L246.89495192307692,167.33945947611568L248.00709134615383,165.37072263376152L249.1192307692308,167.6955708484849L250.2313701923077,164.46265258596526L250.2313701923077,162.94919394792197L251.34350961538462,165.93161576425715L252.45564903846153,159.36748743402308L253.56778846153847,168.7547890662025L254.67992788461538,169.2482871494581L254.67992788461538,174.76978520398995L255.7920673076923,168.63147944796523L256.9042067307692,167.97842381309857L258.01634615384614,170.50143522654156L259.1284855769231,164.96866238203452L259.1284855769231,162.6685506353638L260.240625,174.28832910806324L261.3527644230769,167.61480513045302L262.46490384615385,165.5876962552411L263.5770432692308,168.19739866669238L263.5770432692308,166.7678912385531L264.68918269230767,173.08823001746248L265.8013221153846,167.7967663867998L266.91346153846155,167.60468314121866L268.0256009615385,169.97403716163979L268.0256009615385,171.90828765480055L269.13774038461537,173.20218685234474L270.2498798076923,170.50427950717807L271.36201923076925,170.72962792263525L272.47415865384613,168.35374684419932L272.47415865384613,164.08548974996188L273.5862980769231,168.36952410926935L274.6984375,174.89874786603525L275.81057692307695,169.19129408933256L276.92271634615383,172.6002721925726L276.92271634615383,168.85829350820498L278.0348557692308,168.71979740785088L279.1469951923077,169.2064380930457L280.2591346153846,172.0498584948755L281.37127403846154,175.88981461848397" style="fill: none;" fill="none"></path></g></g></g></g><g opacity="0.2"><g><g><g><path stroke="rgb(255, 112, 67)" stroke-width="2px" d="M26.691346153846155,-12.160305716774658L27.80348557692308,14.717528863386697L27.80348557692308,1.1948310678655785L28.915625000000002,55.638771317221924L30.027764423076924,25.828826470808572L31.13990384615385,39.72483119097625L32.25204326923077,68.38753184405243L32.25204326923077,32.00884086435494L33.36418269230769,65.9808458414945L34.47632211538462,99.12734036012132L35.58846153846154,79.17916995828804L36.70060096153846,79.22031536969273L36.70060096153846,74.28060319206934L37.81274038461539,98.5875849723816L38.92487980769231,94.43129500475797L40.03701923076923,89.58162377097392L41.14915865384615,74.39813726598568L41.14915865384615,93.56605339050294L42.261298076923076,112.27867347543892L43.3734375,103.81420248205013L44.48557692307693,109.35518074035646L45.597716346153845,53.45278462496673L45.597716346153845,119.47565083070238L46.70985576923077,75.71963661367245L47.82199519230769,87.75812023336239L48.934134615384615,116.83812059055676L50.04627403846154,110.13581215251578L50.04627403846154,92.33227560736918L51.158413461538466,103.71020754900846L52.270552884615384,113.80689928748393L53.38269230769231,110.03815308484167L54.49483173076923,114.5364666418596L54.49483173076923,125.17255548997359L55.60697115384616,114.08992013064298L56.71911057692308,90.04947840083732L57.831250000000004,108.82875706932764L58.94338942307692,111.95516720685094L58.94338942307692,135.14303905313668L60.05552884615385,84.9266106865623L61.16766826923077,96.0187687006864L62.2798076923077,128.59094342318448L63.39194711538462,118.70676716891202L63.39194711538462,95.62700102546L64.50408653846154,141.41137842698532L65.61622596153846,111.35984099995007L66.72836538461539,123.60902985659513L67.84050480769231,96.73596603220162L67.84050480769231,125.05981102856725L68.95264423076924,122.73973404277457L70.06478365384615,105.83513611013241L71.17692307692307,103.488056269559L72.2890625,122.25679401917894L72.2890625,115.21449851989748L73.40120192307693,130.56703571839768L74.51334134615384,129.1650935086337L75.62548076923078,98.288762179288L76.73762019230769,109.69107588854703L76.73762019230769,118.59711521322079L77.84975961538461,120.62244246222758L78.96189903846152,120.97132990577006L80.07403846153846,120.1812135523016L81.18617788461539,107.2575567418879L81.18617788461539,142.6939574588429L82.2983173076923,123.64500852064654L83.41045673076923,128.8482248132879L84.52259615384615,82.71957987005062L85.63473557692308,115.59561213580045L85.63473557692308,120.13426026430997L86.746875,142.08005736090922L87.85901442307691,107.95080601085319L88.97115384615385,123.33377799120817L90.08329326923077,102.5128421349959L90.08329326923077,117.44366715171122L91.19543269230769,110.40135279568761L92.3075721153846,143.05902398716321L93.41971153846154,107.09806641665372L94.53185096153847,125.27526816454801L94.53185096153847,96.63951379602608L95.64399038461538,122.06639749353585L96.7561298076923,113.0454074686224L97.86826923076923,132.85326485200363L98.98040865384615,144.9615749879317L98.98040865384615,141.34817062724724L100.09254807692308,126.10390884226021L101.20468749999999,117.50065222653478L102.31682692307693,119.66563250801782L103.42896634615384,102.35027816078882L103.42896634615384,108.87808630683207L104.54110576923077,127.69307964498348L105.65324519230768,122.47573965246029L106.76538461538462,124.56493468718097L107.87752403846154,129.66319435293025L107.87752403846154,131.13381281766027L108.98966346153846,104.87195257707079L110.10180288461538,130.59852647781375L111.21394230769232,121.3480121872642L112.32608173076923,128.22827170111918L112.32608173076923,118.50486803054811L113.43822115384616,137.0034640919079L114.55036057692307,119.44646059383048L115.66250000000001,113.23284348574552L116.77463942307692,132.74472544410014L116.77463942307692,130.4191988598217L117.88677884615385,127.54673246903853L118.99891826923077,132.61585846814245L120.1110576923077,118.0660527836193L121.22319711538462,115.17763358896431L121.22319711538462,135.58432453328913L122.33533653846153,119.69288050044669L123.44747596153846,121.82389978929002L124.5596153846154,134.3757582144304L125.67175480769231,118.7793467695063L125.67175480769231,128.50591837276116L126.78389423076923,106.7172545086254L127.89603365384615,145.63332757082853L129.00817307692307,147.8371150276878L130.1203125,107.87532247196545L130.1203125,136.6075479334051L131.23245192307692,109.4674537832087L132.34459134615383,124.12781654704703L133.45673076923077,135.03417908061638L134.56887019230768,145.59915915402502L134.56887019230768,120.67999323931608L135.68100961538462,140.1303456479853L136.79314903846154,125.485728263855L137.90528846153848,118.24498441002588L139.0174278846154,158.62945084138352L139.0174278846154,107.00385813279588L140.1295673076923,134.27457293597135L141.24170673076924,136.842069235715L142.35384615384615,152.76408004760745L143.4659855769231,140.72376732392746L143.4659855769231,118.92194145376034L144.578125,113.8581707694314L145.6902644230769,162.48186440901324L146.80240384615385,146.82782676003197L147.91454326923076,139.9660845669833L147.91454326923076,132.9350465427746L149.02668269230767,144.49394663897428L150.13882211538464,118.1283366029913L151.25096153846155,137.65641650286588L152.36310096153846,161.90420696952128L152.36310096153846,126.00464695150204L153.47524038461538,130.72332039746374L154.58737980769232,158.12016794898295L155.69951923076923,147.37887733632869L156.81165865384614,139.47228305990046L156.81165865384614,136.85113932869652L157.92379807692305,124.52893716638741L159.03593750000002,154.11876726150516L160.14807692307693,149.7581267790361L161.26021634615384,146.49664579738274L161.26021634615384,120.81134930523962L162.37235576923078,135.82233433289963L163.4844951923077,141.2579034025019L164.5966346153846,159.54028805819425L165.70877403846154,165.85578814419836L165.70877403846154,158.4838579351252L166.82091346153845,146.27751159667972L167.9330528846154,140.48817118731412L169.0451923076923,141.5916111686013L170.15733173076924,141.61084504560992L170.15733173076924,148.03179203380242L171.26947115384615,157.16513052853674L172.38161057692307,137.91837436502632L173.49375,145.12287556041375L174.60588942307692,148.59466578743675L174.60588942307692,135.8675716573542L175.71802884615383,141.07465358213946L176.8301682692308,147.72584139217034L177.9423076923077,166.24250221252444L179.05444711538462,153.259559804743L179.05444711538462,150.346042286266L180.16658653846153,165.13189666921443L181.27872596153847,161.55366013266826L182.39086538461538,130.8243736787276L183.5030048076923,141.79083264957777L183.5030048076923,160.05975359136409L184.6151442307692,147.70455213026568L185.72728365384617,140.0991565964439L186.83942307692308,152.2028656872836L187.9515625,157.90784103220162L187.9515625,134.17817727002233L189.06370192307693,142.3478608131409L190.17584134615385,177.01122938502922L191.28798076923076,160.18081387606534L192.4001201923077,149.41255812211472L192.4001201923077,157.58180796016347L193.5122596153846,155.5639102675698L194.62439903846155,151.4679995883595L195.73653846153846,149.2925161014904L196.8486778846154,156.26309941031718L196.8486778846154,164.83803319931033L197.9608173076923,158.07364836606115L199.07295673076922,157.16005806489426L200.18509615384616,146.43984928998083L201.29723557692307,148.02660642970696L201.29723557692307,141.11172593723646L202.40937499999998,168.1020221276717L203.52151442307695,156.5767436027527L204.63365384615386,150.64801415530118L205.74579326923077,166.13846956599843L205.74579326923077,142.07700256867844L206.85793269230768,148.0289069522511L207.97007211538462,164.6437898982655L209.08221153846154,183.27538256211716L210.19435096153845,147.69067356803203L210.19435096153845,146.688890283758L211.30649038461536,155.87444309754807L212.41862980769233,180.3874913562428L213.53076923076924,170.47486027804288L214.64290865384615,136.20978381417015L214.64290865384615,176.1409153071317L215.7550480769231,162.53353188254619L216.8671875,158.66797516562724L217.9793269230769,159.69378193941984L219.09146634615385,137.38961245796898L219.09146634615385,168.6904656236822L220.20360576923076,180.50210263512352L221.31574519230767,145.76142142035746L222.42788461538464,169.6334535858848L223.54002403846155,134.5058131651445L223.54002403846155,160.0431785150008L224.65216346153846,157.60615201429889L225.76430288461538,168.46092250130394L226.87644230769232,158.81254980780864L227.98858173076923,162.8895660313693L227.98858173076923,157.2852102626454L229.10072115384614,159.65552160956645L230.21286057692305,178.46659274534744L231.32500000000002,152.25508000633934L232.43713942307693,165.59865760803225L232.43713942307693,169.50413404811513L233.54927884615384,157.76568005301738L234.66141826923078,173.49371155825528L235.7735576923077,155.2485878250816L236.8856971153846,160.92808771133426L236.8856971153846,150.5661004673351L237.99783653846154,161.5807572711598L239.10997596153845,163.39752895181832L240.2221153846154,187.16524561968717L241.3342548076923,158.791373686357L241.3342548076923,150.78331128033727L242.44639423076924,167.41052653572777L243.55853365384615,170.838305126537L244.67067307692307,171.6358510364186L245.7828125,166.30109011043203L245.7828125,177.95127569545403L246.89495192307692,160.44701450521296L248.00709134615383,161.3554569157687L249.1192307692308,172.4371305812489L250.2313701923077,157.86907157030973L250.2313701923077,159.86247435483068L251.34350961538462,172.01430585167626L252.45564903846153,145.97985792160037L253.56778846153847,187.90031914277512L254.67992788461538,170.2547832402316L254.67992788461538,186.03095600821757L255.7920673076923,156.1123208999634L256.9042067307692,166.6465079134161L258.01634615384614,175.64715151353317L259.1284855769231,153.68449648943815L259.1284855769231,157.97744126753375L260.240625,197.98702623627403L261.3527644230769,154.0040616989136L262.46490384615385,161.45337997783315L263.5770432692308,173.51992242986506L263.5770432692308,163.8523912863298L264.68918269230767,185.978647405451L265.8013221153846,157.0047539364208L266.91346153846155,167.21292673457754L268.0256009615385,174.80636709386653L269.13774038461537,175.8411119634455L270.2498798076923,165.0018605752425L271.36201923076925,171.1892290982333L272.47415865384613,163.50810488787565L272.47415865384613,155.38032102584842L273.5862980769231,177.10687078129163L274.6984375,188.2151890234514L275.81057692307695,157.55086404627022L276.92271634615383,179.5529296614907L276.92271634615383,161.22647679935804L278.0348557692308,168.43733271685514L279.1469951923077,170.19894842668015L280.2591346153846,177.8490532961759" style="fill: none;" fill="none"></path></g></g></g></g></g></g><g transform="translate(40, 174)" clip-path="url(#clip_1)"><clipPath id="clip_1"><rect width="289" height="26"></rect></clipPath><g><g><line x1="0" y1="0" x2="0" y2="5" style="visibility: inherit;" fill="rgb(0, 0, 0)" stroke="rgb(204, 204, 204)" stroke-width="1px"></line><line x1="22.242788461538463" y1="0" x2="22.242788461538463" y2="5" style="visibility: inherit;" fill="rgb(0, 0, 0)" stroke="rgb(204, 204, 204)" stroke-width="1px"></line><line x1="44.48557692307693" y1="0" x2="44.48557692307693" y2="5" style="visibility: inherit;" fill="rgb(0, 0, 0)" stroke="rgb(204, 204, 204)" stroke-width="1px"></line><line x1="66.72836538461539" y1="0" x2="66.72836538461539" y2="5" style="visibility: inherit;" fill="rgb(0, 0, 0)" stroke="rgb(204, 204, 204)" stroke-width="1px"></line><line x1="88.97115384615385" y1="0" x2="88.97115384615385" y2="5" style="visibility: inherit;" fill="rgb(0, 0, 0)" stroke="rgb(204, 204, 204)" stroke-width="1px"></line><line x1="111.21394230769232" y1="0" x2="111.21394230769232" y2="5" style="visibility: inherit;" fill="rgb(0, 0, 0)" stroke="rgb(204, 204, 204)" stroke-width="1px"></line><line x1="133.45673076923077" y1="0" x2="133.45673076923077" y2="5" style="visibility: inherit;" fill="rgb(0, 0, 0)" stroke="rgb(204, 204, 204)" stroke-width="1px"></line><line x1="155.69951923076923" y1="0" x2="155.69951923076923" y2="5" style="visibility: inherit;" fill="rgb(0, 0, 0)" stroke="rgb(204, 204, 204)" stroke-width="1px"></line><line x1="177.9423076923077" y1="0" x2="177.9423076923077" y2="5" style="visibility: inherit;" fill="rgb(0, 0, 0)" stroke="rgb(204, 204, 204)" stroke-width="1px"></line><line x1="200.18509615384616" y1="0" x2="200.18509615384616" y2="5" style="visibility: inherit;" fill="rgb(0, 0, 0)" stroke="rgb(204, 204, 204)" stroke-width="1px"></line><line x1="222.42788461538464" y1="0" x2="222.42788461538464" y2="5" style="visibility: inherit;" fill="rgb(0, 0, 0)" stroke="rgb(204, 204, 204)" stroke-width="1px"></line><line x1="244.67067307692307" y1="0" x2="244.67067307692307" y2="5" style="visibility: inherit;" fill="rgb(0, 0, 0)" stroke="rgb(204, 204, 204)" stroke-width="1px"></line><line x1="266.91346153846155" y1="0" x2="266.91346153846155" y2="5" style="visibility: inherit;" fill="rgb(0, 0, 0)" stroke="rgb(204, 204, 204)" stroke-width="1px"></line><line x1="289.15625" y1="0" x2="289.15625" y2="5" style="visibility: inherit;" fill="rgb(0, 0, 0)" stroke="rgb(204, 204, 204)" stroke-width="1px"></line></g><g transform="translate(0, 8)"><text x="0" y="0" dx="0em" dy="0.95em" style="text-anchor: middle; visibility: hidden; font-family: Roboto, sans-serif; font-size: 12px; font-weight: 200;" fill="rgb(33, 33, 33)" stroke="none" stroke-width="1px">-20</text><text x="22.242788461538463" y="0" dx="0em" dy="0.95em" style="text-anchor: middle; visibility: inherit; font-family: Roboto, sans-serif; font-size: 12px; font-weight: 200;" fill="rgb(33, 33, 33)" stroke="none" stroke-width="1px">0</text><text x="44.48557692307693" y="0" dx="0em" dy="0.95em" style="text-anchor: middle; visibility: hidden; font-family: Roboto, sans-serif; font-size: 12px; font-weight: 200;" fill="rgb(33, 33, 33)" stroke="none" stroke-width="1px">20</text><text x="66.72836538461539" y="0" dx="0em" dy="0.95em" style="text-anchor: middle; visibility: inherit; font-family: Roboto, sans-serif; font-size: 12px; font-weight: 200;" fill="rgb(33, 33, 33)" stroke="none" stroke-width="1px">40</text><text x="88.97115384615385" y="0" dx="0em" dy="0.95em" style="text-anchor: middle; visibility: hidden; font-family: Roboto, sans-serif; font-size: 12px; font-weight: 200;" fill="rgb(33, 33, 33)" stroke="none" stroke-width="1px">60</text><text x="111.21394230769232" y="0" dx="0em" dy="0.95em" style="text-anchor: middle; visibility: inherit; font-family: Roboto, sans-serif; font-size: 12px; font-weight: 200;" fill="rgb(33, 33, 33)" stroke="none" stroke-width="1px">80</text><text x="133.45673076923077" y="0" dx="0em" dy="0.95em" style="text-anchor: middle; visibility: hidden; font-family: Roboto, sans-serif; font-size: 12px; font-weight: 200;" fill="rgb(33, 33, 33)" stroke="none" stroke-width="1px">100</text><text x="155.69951923076923" y="0" dx="0em" dy="0.95em" style="text-anchor: middle; visibility: inherit; font-family: Roboto, sans-serif; font-size: 12px; font-weight: 200;" fill="rgb(33, 33, 33)" stroke="none" stroke-width="1px">120</text><text x="177.9423076923077" y="0" dx="0em" dy="0.95em" style="text-anchor: middle; visibility: hidden; font-family: Roboto, sans-serif; font-size: 12px; font-weight: 200;" fill="rgb(33, 33, 33)" stroke="none" stroke-width="1px">140</text><text x="200.18509615384616" y="0" dx="0em" dy="0.95em" style="text-anchor: middle; visibility: inherit; font-family: Roboto, sans-serif; font-size: 12px; font-weight: 200;" fill="rgb(33, 33, 33)" stroke="none" stroke-width="1px">160</text><text x="222.42788461538464" y="0" dx="0em" dy="0.95em" style="text-anchor: middle; visibility: hidden; font-family: Roboto, sans-serif; font-size: 12px; font-weight: 200;" fill="rgb(33, 33, 33)" stroke="none" stroke-width="1px">180</text><text x="244.67067307692307" y="0" dx="0em" dy="0.95em" style="text-anchor: middle; visibility: inherit; font-family: Roboto, sans-serif; font-size: 12px; font-weight: 200;" fill="rgb(33, 33, 33)" stroke="none" stroke-width="1px">200</text><text x="266.91346153846155" y="0" dx="0em" dy="0.95em" style="text-anchor: middle; visibility: hidden; font-family: Roboto, sans-serif; font-size: 12px; font-weight: 200;" fill="rgb(33, 33, 33)" stroke="none" stroke-width="1px">220</text><text x="289.15625" y="0" dx="0em" dy="0.95em" style="text-anchor: middle; visibility: hidden; font-family: Roboto, sans-serif; font-size: 12px; font-weight: 200;" fill="rgb(33, 33, 33)" stroke="none" stroke-width="1px">240</text></g><line x1="0" y1="0" x2="289.15625" y2="0" fill="rgb(0, 0, 0)" stroke="rgb(204, 204, 204)" stroke-width="1px"></line></g></g></g></g></svg>